<svg width="16" height="18" viewBox="0 0 16 18" fill="none" xmlns="http://www.w3.org/2000/svg">
<path d="M15.2844 12.6848C14.1503 11.7263 13.5 10.3252 13.5 8.84097V6.75C13.5 4.11081 11.5395 1.92604 9.00005 1.56006V0.749954C9.00005 0.33522 8.664 0 8.25009 0C7.83604 0 7.5 0.33522 7.5 0.749954V1.56006C4.95982 1.92604 3 4.11081 3 6.75V8.84097C3 10.3252 2.34975 11.7263 1.20909 12.6907C0.917267 12.9405 0.75 13.3035 0.75 13.6875C0.75 14.4113 1.33873 15 2.06259 15H14.4376C15.1613 15 15.75 14.4113 15.75 13.6875C15.75 13.3035 15.5828 12.9405 15.2844 12.6848Z" fill="#FF6F14"/>
<path d="M8.25005 18C9.60823 18 10.7445 17.0317 11.0056 15.75H5.49454C5.75546 17.0317 6.89172 18 8.25005 18Z" fill="#FF6F14"/>
</svg>
