<svg width="68" height="82" viewBox="0 0 68 82" fill="none" xmlns="http://www.w3.org/2000/svg">
<g filter="url(#filter0_dd_3612_5245)">
<path fill-rule="evenodd" clip-rule="evenodd" d="M34 54C45.0457 54 54 45.0457 54 34C54 22.9543 45.0457 14 34 14C22.9543 14 14 22.9543 14 34C14 45.0457 22.9543 54 34 54Z" fill="#FF6F14"/>
<path d="M53.75 34C53.75 44.9076 44.9076 53.75 34 53.75C23.0924 53.75 14.25 44.9076 14.25 34C14.25 23.0924 23.0924 14.25 34 14.25C44.9076 14.25 53.75 23.0924 53.75 34Z" stroke="url(#paint0_linear_3612_5245)" stroke-width="0.5"/>
<path d="M53.75 34C53.75 44.9076 44.9076 53.75 34 53.75C23.0924 53.75 14.25 44.9076 14.25 34C14.25 23.0924 23.0924 14.25 34 14.25C44.9076 14.25 53.75 23.0924 53.75 34Z" stroke="url(#paint1_linear_3612_5245)" stroke-width="0.5"/>
</g>
<defs>
<filter id="filter0_dd_3612_5245" x="0" y="0" width="68" height="82" filterUnits="userSpaceOnUse" color-interpolation-filters="sRGB">
<feFlood flood-opacity="0" result="BackgroundImageFix"/>
<feColorMatrix in="SourceAlpha" type="matrix" values="0 0 0 0 0 0 0 0 0 0 0 0 0 0 0 0 0 0 127 0" result="hardAlpha"/>
<feOffset dy="14"/>
<feGaussianBlur stdDeviation="7"/>
<feColorMatrix type="matrix" values="0 0 0 0 0 0 0 0 0 0 0 0 0 0 0 0 0 0 0.237602 0"/>
<feBlend mode="normal" in2="BackgroundImageFix" result="effect1_dropShadow_3612_5245"/>
<feColorMatrix in="SourceAlpha" type="matrix" values="0 0 0 0 0 0 0 0 0 0 0 0 0 0 0 0 0 0 127 0" result="hardAlpha"/>
<feOffset/>
<feGaussianBlur stdDeviation="7"/>
<feColorMatrix type="matrix" values="0 0 0 0 0 0 0 0 0 0 0 0 0 0 0 0 0 0 0.12 0"/>
<feBlend mode="normal" in2="effect1_dropShadow_3612_5245" result="effect2_dropShadow_3612_5245"/>
<feBlend mode="normal" in="SourceGraphic" in2="effect2_dropShadow_3612_5245" result="shape"/>
</filter>
<linearGradient id="paint0_linear_3612_5245" x1="14.1957" y1="14" x2="14.1957" y2="53.6086" gradientUnits="userSpaceOnUse">
<stop stop-opacity="0"/>
<stop offset="0.8" stop-opacity="0.02"/>
<stop offset="1" stop-opacity="0.04"/>
</linearGradient>
<linearGradient id="paint1_linear_3612_5245" x1="14" y1="14" x2="14" y2="54" gradientUnits="userSpaceOnUse">
<stop stop-color="white" stop-opacity="0.12"/>
<stop offset="0.2" stop-color="white" stop-opacity="0.06"/>
<stop offset="1" stop-color="white" stop-opacity="0"/>
</linearGradient>
</defs>
</svg>
