<svg width="28" height="28" viewBox="0 0 28 28" fill="none" xmlns="http://www.w3.org/2000/svg">
<g clip-path="url(#clip0_412_190)">
<path d="M23.2211 2.41056C23.0131 2.28795 22.7617 2.26328 22.5337 2.34302C20.1942 3.1618 17.8619 3.97396 15.9932 4.62393C15.4042 3.97714 14.6112 3.51989 13.7174 3.3525C13.4851 2.00002 12.6302 0.831894 11.3712 0.202386L11.1403 0.086941C10.7353 -0.115622 10.2424 0.0486051 10.0398 0.453785C9.83713 0.858964 10.0014 1.35175 10.4066 1.55432L10.6375 1.66976C11.3444 2.02321 11.8467 2.649 12.0457 3.38564C10.3127 3.78228 8.99538 5.27903 8.87031 7.09936C6.19768 8.02817 3.36071 9.01533 0.549336 9.99932C0.220281 10.1144 5.46875e-05 10.425 5.46875e-05 10.7735H0V19.5235H0.000710938C0.000765625 19.8629 0.212023 20.1803 0.550539 20.2982L22.5349 27.9544C22.6226 27.9851 22.7138 28.0001 22.8047 28.0001C22.9027 28.0001 23.0004 27.9825 23.0928 27.9479C23.115 27.9424 23.1428 27.9362 23.1756 27.9286C23.629 27.8238 24.8336 27.5453 25.9237 26.6492C27.3014 25.5166 28 23.8552 28 21.711V10.7735C28 10.547 27.9457 5.19464 23.2211 2.41056ZM12.9609 4.92197C14.3179 4.92197 15.4219 6.02595 15.4219 7.38291C15.4219 8.73987 14.3179 9.84385 12.9609 9.84385C11.604 9.84385 10.5 8.73987 10.5 7.38291C10.5 6.02595 11.604 4.92197 12.9609 4.92197ZM9.09705 8.75737C9.66344 10.3449 11.1813 11.4845 12.9609 11.4845C15.2225 11.4845 17.0625 9.64451 17.0625 7.38291C17.0625 6.92189 16.9849 6.47893 16.844 6.065C18.5565 5.46928 20.6182 4.75124 22.7053 4.0211C26.3167 6.38793 26.3594 10.7287 26.3594 10.7735C26.3594 14.5784 23.6181 16.8584 22.6904 17.5207L18.1538 15.9329C17.9029 15.8451 17.625 15.8842 17.4081 16.0381C17.1913 16.1919 17.0625 16.4413 17.0625 16.7071V20.0704C17.0625 20.5227 16.6945 20.8907 16.2422 20.8907C15.7899 20.8907 15.4219 20.5227 15.4219 20.0704V15.5587C15.4219 15.2093 15.2007 14.8983 14.8706 14.7838L3.3139 10.771C5.27494 10.0865 7.224 9.40843 9.09705 8.75737ZM13.7812 18.7806L1.64062 14.565V11.9267L13.7812 16.1422V18.7806ZM1.64062 16.3017L13.8254 20.5326C14.0423 21.6693 15.0432 22.5313 16.2422 22.5313C16.853 22.5313 17.4122 22.3071 17.8429 21.9373L21.9844 23.3868V26.0255L1.64062 18.9406V16.3017ZM21.9844 21.6486L18.667 20.4876C18.6903 20.3519 18.7031 20.2127 18.7031 20.0705V17.8634L21.9844 19.0119V21.6486ZM26.3594 21.711C26.3594 23.955 25.4625 25.393 23.625 26.0847V18.8705C24.2274 18.4451 25.3856 17.5151 26.3594 16.0744V21.711Z" fill="#FF6F14"/>
<path d="M22.5312 8.03906C22.9843 8.03906 23.3516 7.6718 23.3516 7.21875C23.3516 6.7657 22.9843 6.39844 22.5312 6.39844C22.0782 6.39844 21.7109 6.7657 21.7109 7.21875C21.7109 7.6718 22.0782 8.03906 22.5312 8.03906Z" fill="#FF6F14"/>
<path d="M23.625 11.8672C24.078 11.8672 24.4453 11.4999 24.4453 11.0469C24.4453 10.5938 24.078 10.2266 23.625 10.2266C23.172 10.2266 22.8047 10.5938 22.8047 11.0469C22.8047 11.4999 23.172 11.8672 23.625 11.8672Z" fill="#FF6F14"/>
<path d="M20.8906 15.1484C21.3437 15.1484 21.7109 14.7812 21.7109 14.3281C21.7109 13.8751 21.3437 13.5078 20.8906 13.5078C20.4376 13.5078 20.0703 13.8751 20.0703 14.3281C20.0703 14.7812 20.4376 15.1484 20.8906 15.1484Z" fill="#FF6F14"/>
<path d="M19.25 11.3203C19.703 11.3203 20.0703 10.953 20.0703 10.5C20.0703 10.047 19.703 9.67969 19.25 9.67969C18.797 9.67969 18.4297 10.047 18.4297 10.5C18.4297 10.953 18.797 11.3203 19.25 11.3203Z" fill="#FF6F14"/>
</g>
<defs>
<clipPath id="clip0_412_190">
<rect width="28" height="28" fill="white"/>
</clipPath>
</defs>
</svg>
