<svg width="28" height="28" viewBox="0 0 28 28" fill="none" xmlns="http://www.w3.org/2000/svg">
<g clip-path="url(#clip0_412_7)">
<path d="M27.1797 11.4844H26.2757C26.1086 10.6716 25.6966 9.92502 25.093 9.34697C25.4035 8.2804 25.2725 7.12523 24.7109 6.15234C24.1491 5.17945 23.2142 4.48842 22.1353 4.22406C21.8709 3.14519 21.1799 2.21025 20.207 1.6485C19.2342 1.08686 18.079 0.955828 17.0124 1.26634C16.2441 0.464188 15.1781 0 14.0547 0C12.9136 0 11.7743 0.483656 10.9949 1.26848C9.92633 0.955281 8.76794 1.0856 7.79297 1.6485C6.82008 2.2102 6.12905 3.14519 5.86463 4.22401C4.78576 4.48837 3.85082 5.1794 3.28912 6.15229C2.72743 7.12512 2.59645 8.28034 2.90697 9.34691C2.30344 9.92502 1.89142 10.6716 1.7243 11.4844H0.820312C0.367281 11.4844 0 11.8517 0 12.3047C0 17.1204 2.49654 21.5863 6.5625 24.1314V25.5391C6.5625 26.896 7.66648 28 9.02344 28H18.9766C20.3335 28 21.4375 26.896 21.4375 25.5391V24.1314C25.5035 21.5863 28 17.1204 28 12.3047C28 11.8517 27.6327 11.4844 27.1797 11.4844ZM4.34744 10.2823C4.67742 10.0539 4.79363 9.62019 4.62213 9.25728C4.27509 8.52305 4.3079 7.66899 4.70996 6.97266C5.11202 6.27627 5.83527 5.82077 6.64453 5.75422C7.04452 5.72135 7.36198 5.40389 7.3949 5.00391C7.46145 4.19459 7.91689 3.4714 8.61328 3.06928C9.30962 2.66722 10.1637 2.63446 10.8979 2.98145C11.2608 3.15301 11.6944 3.03674 11.9229 2.70676C12.3644 2.0691 13.2211 1.64062 14.0547 1.64062C14.8589 1.64062 15.6149 2.03919 16.0771 2.70681C16.3056 3.0368 16.7392 3.15306 17.1021 2.98151C17.8363 2.63446 18.6903 2.66727 19.3867 3.06934C20.0831 3.4714 20.5385 4.19459 20.605 5.00391C20.6379 5.40389 20.9554 5.72135 21.3554 5.75427C22.1647 5.82083 22.8879 6.27632 23.29 6.97271C23.6921 7.66905 23.7249 8.5231 23.3778 9.25734C23.2063 9.62019 23.3225 10.0539 23.6525 10.2823C24.0851 10.5818 24.4037 11.005 24.5751 11.4844H3.42475C3.5962 11.005 3.9148 10.5818 4.34744 10.2823ZM19.7969 25.5391C19.7969 25.9914 19.4289 26.3594 18.9766 26.3594H9.02344C8.57112 26.3594 8.20312 25.9914 8.20312 25.5391V24.6094H19.7969V25.5391ZM20.185 22.9688H7.81495C4.23992 20.9057 1.94124 17.1923 1.66808 13.1141H26.3319C26.0588 17.1923 23.7601 20.9057 20.185 22.9688Z" fill="#FF6F14"/>
<path d="M17.3359 8.20312C17.789 8.20312 18.1562 7.83586 18.1562 7.38281C18.1562 6.92977 17.789 6.5625 17.3359 6.5625C16.8829 6.5625 16.5156 6.92977 16.5156 7.38281C16.5156 7.83586 16.8829 8.20312 17.3359 8.20312Z" fill="#FF6F14"/>
<path d="M20.6172 9.84375C21.0702 9.84375 21.4375 9.47648 21.4375 9.02344C21.4375 8.57039 21.0702 8.20312 20.6172 8.20312C20.1641 8.20312 19.7969 8.57039 19.7969 9.02344C19.7969 9.47648 20.1641 9.84375 20.6172 9.84375Z" fill="#FF6F14"/>
<path d="M7.38281 8.20312C7.83586 8.20312 8.20312 7.83586 8.20312 7.38281C8.20312 6.92977 7.83586 6.5625 7.38281 6.5625C6.92977 6.5625 6.5625 6.92977 6.5625 7.38281C6.5625 7.83586 6.92977 8.20312 7.38281 8.20312Z" fill="#FF6F14"/>
</g>
<defs>
<clipPath id="clip0_412_7">
<rect width="28" height="28" fill="white"/>
</clipPath>
</defs>
</svg>
