<svg width="20" height="19" viewBox="0 0 20 19" fill="none" xmlns="http://www.w3.org/2000/svg">
<path d="M3.65502 4.81815C3.8516 3.8051 4.74283 3.0373 5.81203 3.0373C5.99496 3.0373 6.14305 3.1853 6.14305 3.36831C6.14305 3.55125 5.99496 3.69933 5.81203 3.69933C5.18357 3.69933 4.64336 4.07984 4.4053 4.62193C4.60855 4.59039 4.81443 4.57275 5.02131 4.57275C5.90703 4.57275 6.7488 4.85272 7.44639 5.37053C7.89388 5.04 8.39685 4.82478 8.91734 4.70016C9.54641 4.54964 10.1998 4.54956 10.829 4.70024C11.2469 4.80035 11.6486 4.96683 12.0237 5.1999C12.0446 4.00432 13.0195 3.0373 14.2193 3.0373C14.4023 3.0373 14.5504 3.1853 14.5504 3.36831C14.5504 3.55125 14.4023 3.69933 14.2193 3.69933C13.4107 3.69933 12.7528 4.32983 12.6934 5.12422C13.3067 4.77017 13.9986 4.57275 14.7249 4.57275C15.5854 4.57275 16.4266 4.85583 17.1174 5.35553C17.0984 3.612 15.6816 2.20523 13.9355 2.20523C13.575 2.20523 13.2344 2.27811 12.9112 2.38848C12.5743 1.01911 11.3474 0 9.87407 0C8.4006 0 7.17369 1.01939 6.83685 2.3888C6.51342 2.27823 6.17242 2.20523 5.81143 2.20523C4.06822 2.20523 2.65654 3.60645 2.63184 5.34495L2.63447 5.34411C2.94689 5.11971 3.29315 4.94724 3.65502 4.81815ZM9.93095 0.771918C10.1139 0.771918 10.262 0.919923 10.262 1.10293C10.262 1.28594 10.1139 1.43395 9.93095 1.43395C9.08339 1.43395 8.39354 2.12444 8.39354 2.97264C8.39354 3.11346 8.30501 3.23188 8.18123 3.27974C8.14415 3.29403 8.10463 3.30365 8.06248 3.30365C7.87951 3.30365 7.73151 3.15565 7.73151 2.97264C7.73151 2.93815 7.74009 2.90598 7.74169 2.87181C7.79561 1.70597 8.75257 0.771918 9.93095 0.771918Z" fill="#FF6F14"/>
<path d="M2.5956 8.88888C2.5956 8.88888 2.59628 8.88888 2.59684 8.88888C3.21816 8.88828 3.80779 8.67558 4.28106 8.28445L4.47632 8.10794C4.76399 7.82024 5.2767 7.81764 5.56824 8.1105C6.07125 8.61219 6.73584 8.88824 7.43471 8.88824C7.43862 8.88757 7.44441 8.88757 7.45091 8.88824C8.1543 8.88824 8.81892 8.61343 9.32317 8.11365L9.36325 8.07294C9.65742 7.81625 10.1022 7.81884 10.3938 8.08324L10.4203 8.10978C10.9142 8.60441 11.5995 8.88753 12.2984 8.88753C12.2997 8.88753 12.301 8.88753 12.3023 8.88753C13.0109 8.88753 13.6768 8.61143 14.1791 8.10786C14.4675 7.82139 14.9815 7.82016 15.2659 8.10587L15.3151 8.15373C15.811 8.62692 16.4601 8.88685 17.1505 8.88816C17.8532 8.88816 18.5385 8.60369 19.0312 8.10842C19.4172 7.71921 19.4152 7.09015 19.0266 6.70417C18.6374 6.31759 18.0091 6.31887 17.6224 6.70808C17.3735 6.95895 16.9248 6.95504 16.6747 6.70553L16.6294 6.66154C16.1219 6.1747 15.4313 5.89673 14.7248 5.89673C13.9877 5.89673 13.2953 6.18312 12.7723 6.70617C12.6462 6.8329 12.5059 6.9079 12.2997 6.90139C12.1342 6.90139 11.9725 6.83928 11.8504 6.73008L11.8232 6.70229C10.7474 5.63042 8.99667 5.62974 7.92215 6.70297L7.89046 6.73459C7.76636 6.84324 7.61117 6.90207 7.44505 6.90207C7.44373 6.90139 7.44249 6.90139 7.44113 6.90207C7.26531 6.90207 7.09846 6.83222 6.97305 6.70677C6.4526 6.18444 5.75955 5.89673 5.0212 5.89673C4.38057 5.89673 3.75282 6.12492 3.26207 6.5303L3.06812 6.70553C2.94207 6.83226 2.77398 6.90207 2.59556 6.90267C2.41706 6.90267 2.24966 6.8329 2.12293 6.70617C1.73507 6.31823 1.10665 6.31823 0.718717 6.70617C0.330822 7.09406 0.330822 7.72244 0.718717 8.11038C1.22041 8.61219 1.88703 8.88888 2.5956 8.88888Z" fill="#FF6F14"/>
<path d="M19.5807 10.4308C19.4502 10.2789 19.26 10.1923 19.0603 10.1923H17.5452H16.9074H12.4944H12.0654H7.66866H7.18146H2.86232H2.19095H0.686432C0.486617 10.1923 0.296542 10.2795 0.166618 10.4308C0.0360559 10.5822 -0.0221402 10.7832 0.00763641 10.981C0.431734 13.7823 2.81027 17.086 6.06028 18.646C6.38287 18.8012 6.73133 18.8795 7.08889 18.8795H12.6572C13.0122 18.8795 13.3658 18.7999 13.6859 18.646C16.9359 17.086 19.3151 13.7823 19.7391 10.981C19.7689 10.7832 19.7113 10.5822 19.5807 10.4308Z" fill="#FF6F14"/>
</svg>
