<svg width="24" height="24" viewBox="0 0 24 24" fill="none" xmlns="http://www.w3.org/2000/svg">
<path d="M18.4001 4.80001H14.6336C14.2646 3.756 13.2746 3 12.1001 3C10.9256 3 9.93554 3.756 9.56657 4.80001H5.80007C4.80559 4.80001 4.00006 5.6055 4.00006 6.60003V19.2C4.00006 20.1945 4.80555 21 5.80007 21H18.4001C19.3946 21 20.2001 20.1945 20.2001 19.2V6.59998C20.2001 5.6055 19.3946 4.80001 18.4001 4.80001ZM12.1001 4.80001C12.595 4.80001 13 5.2005 13 5.7C13 6.1995 12.595 6.59998 12.1001 6.59998C11.6051 6.59998 11.2001 6.1995 11.2001 5.7C11.2001 5.2005 11.6051 4.80001 12.1001 4.80001ZM10.3001 17.4L6.70006 13.8L7.97357 12.5265L10.3001 14.853L16.2266 8.9265L17.5001 10.2L10.3001 17.4Z" fill="#FF6F14"/>
</svg>
