<svg width="176" height="111" viewBox="0 0 176 111" fill="none" xmlns="http://www.w3.org/2000/svg">
<g filter="url(#filter0_d_5_1948)">
<path fill-rule="evenodd" clip-rule="evenodd" d="M84.6699 48.8158C85.2737 47.6749 85.5978 46.3455 85.5978 44.8488C85.5978 39.7946 81.8174 37.8185 75.7311 36.4884C72.0642 35.6524 71.157 35.1204 71.157 33.9043C71.157 32.8783 72.0264 32.1183 73.8032 32.1183C76.147 32.1183 78.7932 33.0303 81.2126 34.7404L84.8795 29.5341C82.0065 27.2161 78.4908 26 73.9922 26C67.6413 26 63.7476 29.5721 63.7476 34.5124C63.7476 40.0606 68.0949 41.6567 73.7276 42.9487C77.3189 43.7847 78.1883 44.3928 78.1883 45.4948C78.1883 46.7109 77.1299 47.3949 75.1641 47.3949C72.102 47.3949 69.1912 46.2929 66.5828 44.2028L62.7409 48.8158H56.2722L59.0099 44.2225C59.1037 44.0729 59.1505 43.8986 59.1442 43.722C59.138 43.5454 59.079 43.3748 58.9749 43.2323C58.8708 43.0898 58.7264 42.9821 58.5604 42.923C58.3945 42.864 58.2147 42.8563 58.0444 42.9012C56.7279 43.2315 55.4641 43.4914 54.2573 43.6984C54.29 43.524 54.3076 43.3472 54.31 43.1698C54.2927 42.2984 53.9319 41.4693 53.3068 40.8642C52.6817 40.2591 51.8432 39.9273 50.9748 39.9415C50.8178 39.9409 50.6609 39.9512 50.5053 39.9723C50.3021 39.3278 49.9115 38.759 49.3836 38.3392C48.8557 37.9193 48.2147 37.6676 47.5431 37.6165C46.8715 37.5653 46.2 37.717 45.615 38.0521C45.03 38.3872 44.5583 38.8903 44.2606 39.4966L41.768 36.995C41.6034 36.8297 41.38 36.7368 41.1471 36.7368C40.9142 36.7368 40.6908 36.8297 40.5261 36.995C40.3615 37.1603 40.2689 37.3844 40.2689 37.6182C40.2689 37.8519 40.3615 38.0761 40.5261 38.2414L42.4614 40.1705C41.8289 40.3853 41.2783 40.7916 40.8853 41.3335C40.4924 41.8754 40.2765 42.5261 40.2672 43.1963C40.2691 43.3766 40.2867 43.5564 40.3199 43.7336C39.3714 43.5563 38.4393 43.2999 37.5333 42.9672C37.3641 42.8992 37.178 42.8856 37.0009 42.9285C36.8237 42.9714 36.6642 43.0686 36.5446 43.2066C36.4249 43.3446 36.3511 43.5165 36.3332 43.6986C36.3154 43.8806 36.3544 44.0637 36.445 44.2225L39.1827 48.8158H35.9606C33.1991 48.8158 30.9606 51.0544 30.9606 53.8158V72C30.9606 74.7614 33.1992 77 35.9606 77H140.04C142.801 77 145.04 74.7614 145.04 72V53.8158C145.04 51.0544 142.801 48.8158 140.04 48.8158H137.547V45.9738C137.547 45.6807 137.431 45.3996 137.223 45.1923C137.016 44.985 136.735 44.8686 136.441 44.8686V43.8628C136.44 42.9575 136.079 42.0897 135.438 41.4496C134.798 40.8094 133.929 40.4491 133.023 40.4477H131.01C130.104 40.4491 129.236 40.8094 128.595 41.4496C127.954 42.0897 127.594 42.9575 127.592 43.8628V44.8686H126.005L127.039 37.2812C127.061 37.124 127.048 36.9641 127.002 36.8123C126.956 36.6604 126.878 36.5203 126.773 36.4013C126.668 36.2823 126.539 36.1872 126.394 36.1226C126.249 36.058 126.092 36.0253 125.933 36.0267H124.827V34.9215H127.039C127.332 34.9215 127.614 34.805 127.821 34.5978C128.029 34.3905 128.145 34.1094 128.145 33.8162C128.145 33.5231 128.029 33.242 127.821 33.0347C127.614 32.8275 127.332 32.711 127.039 32.711H124.727C124.181 32.6991 123.651 32.9041 123.255 33.281C122.859 33.658 122.629 34.1763 122.615 34.7225V36.0267H119.296C119.137 36.0253 118.98 36.058 118.835 36.1226C118.69 36.1872 118.561 36.2823 118.456 36.4013C118.351 36.5203 118.273 36.6604 118.227 36.8123C118.181 36.9641 118.169 37.124 118.19 37.2812L119.224 44.8686H118.743C118.45 44.8686 118.168 44.985 117.961 45.1923C117.754 45.3996 117.637 45.6807 117.637 45.9738V48.8158H112.14C112.593 47.9089 112.829 46.8726 112.829 45.7228C112.829 42.0367 110.788 40.2126 107.574 39.1486C109.918 38.1225 111.657 36.2984 111.657 33.2203C111.657 31.3202 111.014 29.9142 109.956 28.8501C108.406 27.2921 106.062 26.456 102.736 26.456H89.1642V48.8158H84.6699ZM96.309 47.1289V42.2267H101.904C104.361 42.2267 105.495 43.1767 105.495 44.6208C105.495 46.2549 104.21 47.1289 101.979 47.1289H96.309ZM96.309 37.0585V32.3843H101.072C103.265 32.3843 104.399 33.2203 104.399 34.6644C104.399 36.2984 103.151 37.0585 100.921 37.0585H96.309Z" fill="#FF6F14"/>
</g>
<path d="M39.6842 69.2863H44.7889C48.9026 69.2863 51.7447 66.4255 51.7447 62.7419C51.7447 59.0209 48.9026 56.1974 44.7889 56.1974H39.6842V69.2863ZM42.5638 66.6872V58.7965H44.7889C47.1449 58.7965 48.7343 60.4232 48.7343 62.7419C48.7343 65.0979 47.1449 66.6872 44.7889 66.6872H42.5638Z" fill="white"/>
<path d="M54.3107 69.2863H64.2769V66.7246H57.1715V63.976H63.342V61.4143H57.1715V58.7591H64.1835V56.1974H54.3107V69.2863Z" fill="white"/>
<path d="M66.8372 69.2863H76.2425V66.6685H69.7167V56.1974H66.8372V69.2863Z" fill="white"/>
<path d="M78.5451 69.2863H81.4246V56.1974H78.5451V69.2863Z" fill="white"/>
<path d="M88.8655 69.3798H91.4085L96.7001 56.1974H93.5962L90.1744 65.4157L86.7525 56.1974H83.5738L88.8655 69.3798Z" fill="white"/>
<path d="M98.7196 69.2863H108.686V66.7246H101.58V63.976H107.751V61.4143H101.58V58.7591H108.592V56.1974H98.7196V69.2863Z" fill="white"/>
<path d="M111.246 69.2863H114.126V65.0979H116.351L119.193 69.2863H122.559L119.361 64.6117C121.025 63.9947 122.166 62.6671 122.166 60.5541C122.166 59.2826 121.773 58.2542 121.044 57.525C120.184 56.6649 118.894 56.1974 117.23 56.1974H111.246V69.2863ZM114.126 62.5549V58.7965H116.987C118.389 58.7965 119.249 59.4322 119.249 60.6663C119.249 61.8069 118.445 62.5549 117.043 62.5549H114.126Z" fill="white"/>
<path d="M127.967 69.2863H130.847V64.0694L135.877 56.1974H132.605L129.426 61.4517L126.303 56.1974H122.938L127.967 64.1255V69.2863Z" fill="white"/>
<defs>
<filter id="filter0_d_5_1948" x="0.960571" y="0" width="174.079" height="111" filterUnits="userSpaceOnUse" color-interpolation-filters="sRGB">
<feFlood flood-opacity="0" result="BackgroundImageFix"/>
<feColorMatrix in="SourceAlpha" type="matrix" values="0 0 0 0 0 0 0 0 0 0 0 0 0 0 0 0 0 0 127 0" result="hardAlpha"/>
<feOffset dy="4"/>
<feGaussianBlur stdDeviation="15"/>
<feColorMatrix type="matrix" values="0 0 0 0 0.0666667 0 0 0 0 0.0188889 0 0 0 0 0.0188889 0 0 0 0.51 0"/>
<feBlend mode="normal" in2="BackgroundImageFix" result="effect1_dropShadow_5_1948"/>
<feBlend mode="normal" in="SourceGraphic" in2="effect1_dropShadow_5_1948" result="shape"/>
</filter>
</defs>
</svg>
