<svg width="28" height="28" viewBox="0 0 28 28" fill="none" xmlns="http://www.w3.org/2000/svg">
<g clip-path="url(#clip0_413_11805)">
<path d="M25.9629 0H21.8488C21.4905 0 21.1738 0.232422 21.0663 0.574164L19.5611 5.35938H13.5218C13.3386 3.97819 12.6979 2.70577 11.6829 1.72834C10.5256 0.613813 9.00331 0 7.39648 0C3.98896 0 1.2168 2.77222 1.2168 6.17969C1.2168 9.57868 3.97529 12.3453 7.37111 12.359C7.94872 17.0863 8.51457 21.6994 9.02256 25.8389C9.17383 27.0709 10.2239 28 11.4652 28H19.9358C21.1776 28 22.2277 27.0704 22.3785 25.8378C23.1757 19.3182 23.974 12.7988 24.7737 6.27955C24.8023 6.04636 24.7295 5.81208 24.5738 5.63609C24.4181 5.46011 24.1945 5.35938 23.9595 5.35938H21.281L22.4508 1.64062H25.9629C26.416 1.64062 26.7833 1.27334 26.7833 0.820312C26.7833 0.367281 26.4159 0 25.9629 0V0ZM8.37009 7H19.045L17.944 10.5H8.79692C8.65479 9.33592 8.51227 8.16752 8.37009 7ZM11.8614 5.35938H9.37688L11.1363 3.59991C11.4925 4.11715 11.7445 4.71308 11.8614 5.35938ZM9.9762 2.43994L7.39648 5.0196L4.82147 2.44459C5.55368 1.93823 6.44082 1.64062 7.39648 1.64062C8.35565 1.64062 9.24388 1.93545 9.9762 2.43994ZM2.85742 6.17969C2.85742 5.22402 3.15503 4.33688 3.66138 3.60467L6.2364 6.17969L3.66138 8.7547C3.15503 8.02249 2.85742 7.13535 2.85742 6.17969ZM4.82147 9.91479L6.82795 7.9083C6.94203 8.84423 7.05616 9.77998 7.17002 10.713C6.30082 10.6701 5.49555 10.3809 4.82147 9.91479ZM8.9973 12.1406H17.4279L15.8681 17.0993L14.0629 13.9727C13.8363 13.5803 13.3347 13.4459 12.9423 13.6724L9.63129 15.584C9.55839 15.6261 9.49337 15.679 9.43742 15.7399C9.29201 14.5515 9.14501 13.3499 8.9973 12.1406ZM17.295 18.3688L18.8798 18.7934L18.4551 20.3781L16.8704 19.9536L17.295 18.3688ZM14.1436 17.3936L12.2534 18.4849L11.162 16.5947L13.0523 15.5034L14.1436 17.3936ZM10.651 25.639C10.3257 22.9881 9.97664 20.1429 9.61598 17.1981L11.2427 20.0156C11.3946 20.2788 11.6704 20.4259 11.9539 20.4259C12.093 20.4259 12.2341 20.3905 12.3633 20.3159L15.5216 18.4924C15.5263 18.5217 15.5324 18.5505 15.5402 18.5789L15.0734 20.3213C15.0171 20.5314 15.0466 20.7553 15.1553 20.9437C15.2641 21.1321 15.4433 21.2696 15.6534 21.3259L16.196 21.4713C16.0919 21.4849 15.9887 21.5185 15.892 21.5743L13.0504 23.215C12.862 23.3237 12.7245 23.5029 12.6681 23.713C12.6119 23.9232 12.6413 24.1471 12.7501 24.3355L13.9186 26.3594H11.4652C11.0447 26.3594 10.7022 26.0564 10.651 25.639ZM15.4014 25.6464L14.5811 24.2256L16.0019 23.4053L16.8222 24.8261L15.4014 25.6464ZM20.75 25.6386C20.6989 26.0562 20.3565 26.3594 19.9358 26.3594H17.4478L18.3529 25.8368C18.5413 25.728 18.6788 25.5489 18.7351 25.3387C18.7914 25.1285 18.7619 24.9046 18.6531 24.7162L17.0125 21.8746C16.9567 21.7779 16.8842 21.6972 16.8007 21.6333L18.8228 22.1751C18.8939 22.1942 18.9653 22.2033 19.0356 22.2033C19.3978 22.2033 19.7293 21.9616 19.8274 21.5951L20.6767 18.4256C20.7939 17.988 20.5343 17.5382 20.0966 17.421L17.6896 16.776L19.1478 12.1406H22.4029C21.8516 16.6399 21.3002 21.1392 20.75 25.6386ZM23.0324 7C22.8893 8.16665 22.7468 9.33335 22.6038 10.5H19.6639L20.7648 7H23.0324Z" fill="#FF6F14"/>
</g>
<defs>
<clipPath id="clip0_413_11805">
<rect width="28" height="28" fill="white"/>
</clipPath>
</defs>
</svg>
