<svg width="28" height="28" viewBox="0 0 28 28" fill="none" xmlns="http://www.w3.org/2000/svg">
<path d="M27.9976 12.1619C27.9466 11.1253 27.4952 10.1195 26.6457 9.16202C25.4146 7.77443 23.3183 6.48178 20.4151 5.32003C17.8605 4.29762 15.1232 3.75723 12.4992 3.75723C9.61742 3.75723 6.94868 4.4082 4.78024 5.63988C4.61559 5.72443 3.39892 6.37564 2.23313 7.70719C1.1776 8.91283 -0.0218454 10.912 0.00427278 13.7484C0.000859158 13.7741 -0.000807958 17.9272 0.000382839 17.9421C0.19607 20.5394 1.49444 22.5258 3.65629 23.5353C4.67656 24.0117 5.85633 24.2429 7.05784 24.2429C8.89945 24.2428 10.7918 23.6997 12.2369 22.664C16.0369 19.9407 18.853 19.121 21.6532 19.9225C23.491 20.4489 24.9997 20.3507 26.1373 19.6306C27.1248 19.0055 27.7673 17.943 27.9955 16.558C28.0009 16.5259 28.0012 12.1879 27.9976 12.1619ZM26.7738 12.8394C26.5716 14.0705 25.8843 15.5379 23.758 15.5379C23.2181 15.5379 22.6102 15.4419 21.9509 15.2525C21.5892 15.1487 21.224 15.0696 20.8576 15.0136L25.5687 9.75234C26.5351 10.7552 26.9459 11.7921 26.7738 12.8394ZM24.68 8.9599L19.3446 14.9183C17.2038 14.9763 15.0074 15.819 12.3458 17.6114L21.6808 7.17021C22.8916 7.74704 23.8925 8.34561 24.68 8.9599ZM19.9726 6.42549C20.1662 6.50297 20.3544 6.58109 20.54 6.65952L9.30702 19.2234C8.59039 19.4257 7.8309 19.5347 7.06935 19.5347C6.26556 19.5347 5.43574 19.4068 4.6618 19.1218L16.9928 5.48492C18.0013 5.72268 19.0007 6.03658 19.9726 6.42549ZM12.4992 4.94803C13.5317 4.94803 14.5834 5.03829 15.634 5.21223L3.55388 18.5717C2.64197 17.982 1.8974 17.0951 1.50293 15.8417L11.2136 4.99669C11.6361 4.96542 12.0645 4.94803 12.4992 4.94803ZM3.09899 8.52598C4.1854 7.2993 5.31753 6.70239 5.32777 6.69731C5.33769 6.69231 7.17311 5.57201 9.40379 5.23279L1.22333 14.369C1.22222 14.3549 1.03384 10.8578 3.09899 8.52598ZM25.5005 18.6244C24.6623 19.1549 23.4782 19.2064 21.981 18.7778C20.3062 18.2981 18.6274 18.3287 16.8485 18.8704C15.2542 19.3561 13.5189 20.2804 11.5433 21.6961C9.48333 23.1725 6.37821 23.4922 4.16015 22.4563C2.92927 21.8816 1.4218 20.628 1.19388 17.9216C1.53667 18.4228 1.94924 18.8676 2.43151 19.2464C3.64629 20.2002 5.29332 20.7255 7.06935 20.7255C8.94954 20.7255 10.8327 20.147 12.2361 19.1384C15.1541 17.041 17.42 16.1058 19.5831 16.1058C20.2722 16.1058 20.9392 16.2011 21.6222 16.3973C22.3883 16.6172 23.107 16.7288 23.758 16.7289C23.7582 16.7289 23.7581 16.7289 23.7581 16.7289C25.0352 16.7289 26.0764 16.305 26.8128 15.5186V16.4112C26.687 17.1314 26.3564 18.0827 25.5005 18.6244Z" fill="#FF6F14"/>
</svg>
