<svg width="28" height="28" viewBox="0 0 28 28" fill="none" xmlns="http://www.w3.org/2000/svg">
<g clip-path="url(#clip0_412_35)">
<path d="M27.1797 21.9844H26.8203C26.4001 16.486 21.7917 12.1406 16.1875 12.1406C13.2938 12.1406 10.5178 13.3323 8.50828 15.4221C4.725 15.4337 1.60284 18.3056 1.19427 21.9844H0.820312C0.367281 21.9844 0 22.3517 0 22.8047C0 25.6694 2.33062 28 5.19531 28H22.8047C25.6694 28 28 25.6694 28 22.8047C28 22.3517 27.6327 21.9844 27.1797 21.9844ZM25.1733 21.9844H23.5245C23.1151 18.2981 19.9811 15.4219 16.1875 15.4219C14.8286 15.4219 13.5175 15.7916 12.3625 16.4959C11.8216 16.1662 11.2349 15.9044 10.6148 15.7217C12.1959 14.4755 14.1577 13.7812 16.1875 13.7812C20.8865 13.7812 24.7574 17.3919 25.1733 21.9844ZM15.8682 21.9844C15.8088 21.4492 15.6924 20.931 15.5245 20.4363C15.7397 20.3753 15.9626 20.3438 16.1875 20.3438C17.2569 20.3438 18.1687 21.0296 18.5073 21.9844H15.8682ZM20.2065 21.9844C19.8255 20.1145 18.1683 18.7031 16.1875 18.7031C15.7197 18.7031 15.2574 18.7842 14.8193 18.9403C14.5196 18.4544 14.1654 18.0056 13.7648 17.6026C14.5202 17.2477 15.342 17.0625 16.1875 17.0625C19.0753 17.0625 21.4716 19.2053 21.8708 21.9844H20.2065ZM8.53125 17.0625C11.419 17.0625 13.8153 19.2053 14.2146 21.9844H12.5503C12.1692 20.1145 10.512 18.7031 8.53125 18.7031C6.55047 18.7031 4.89333 20.1145 4.51221 21.9844H2.84791C3.24718 19.2053 5.64348 17.0625 8.53125 17.0625ZM10.8511 21.9844H6.21141C6.55003 21.0296 7.46184 20.3438 8.53125 20.3438C9.60066 20.3438 10.5125 21.0296 10.8511 21.9844ZM22.8047 26.3594H5.19531C3.51745 26.3594 2.10738 25.191 1.73616 23.625H26.2638C25.8926 25.191 24.4826 26.3594 22.8047 26.3594Z" fill="#FF6F14"/>
<path d="M25.5391 2.1875H12.4635C12.1054 0.92657 10.9444 0 9.57031 0H0.820312C0.367281 0 0 0.367281 0 0.820312C0 1.27334 0.367281 1.64062 0.820312 1.64062H6.5625V3.82812H0.820312C0.367281 3.82812 0 4.19541 0 4.64844C0 5.10147 0.367281 5.46875 0.820312 5.46875H6.5625V7.65625H0.820312C0.367281 7.65625 0 8.02353 0 8.47656C0 8.92959 0.367281 9.29688 0.820312 9.29688H9.57031C10.9444 9.29688 12.1054 8.37031 12.4635 7.10938H25.5391C26.896 7.10938 28 6.0054 28 4.64844C28 3.29148 26.896 2.1875 25.5391 2.1875ZM10.9375 6.28906C10.9375 7.04293 10.3242 7.65625 9.57031 7.65625H8.20312V1.64062H9.57031C10.3242 1.64062 10.9375 2.25395 10.9375 3.00781V6.28906ZM25.5391 5.46875H12.5781V3.82812H25.5391C25.9914 3.82812 26.3594 4.19612 26.3594 4.64844C26.3594 5.10076 25.9914 5.46875 25.5391 5.46875Z" fill="#FF6F14"/>
</g>
<defs>
<clipPath id="clip0_412_35">
<rect width="28" height="28" fill="white"/>
</clipPath>
</defs>
</svg>
