<svg width="28" height="28" viewBox="0 0 28 28" fill="none" xmlns="http://www.w3.org/2000/svg">
<g clip-path="url(#clip0_412_39)">
<path d="M25.4896 17.6037C25.4922 17.5721 25.4935 17.5405 25.4952 17.5089C26.9756 17.1904 28 15.8758 28 14.362C28 13.4873 27.6579 12.6737 27.0579 12.0691C27.8054 10.4498 27.1046 8.52095 25.4896 7.76025C25.6383 5.98291 24.3198 4.41 22.5422 4.24752C22.074 2.52695 20.2975 1.49932 18.571 1.95475C17.5162 0.460425 15.4752 0.162653 13.957 1.16627C12.4958 0.142582 10.4651 0.488206 9.42979 1.95475C7.70512 1.49981 5.92724 2.52514 5.45862 4.24752C3.68243 4.40994 2.3625 5.98132 2.51119 7.76019C0.897865 8.52013 0.194696 10.4481 0.942928 12.0691C-0.194732 13.2154 -0.316302 15.0269 0.651444 16.3233C1.10863 16.9357 1.77472 17.3509 2.50551 17.5081C2.50726 17.54 2.50852 17.5718 2.51114 17.6036C0.897811 18.3636 0.194642 20.2916 0.942873 21.9125C-0.195224 23.0593 -0.316302 24.8713 0.652046 26.1676C1.42954 27.2083 2.78835 27.6601 4.03128 27.2981C10.4169 25.4388 17.3441 25.4104 23.772 27.2412C24.9306 27.5712 26.1913 27.1986 26.9838 26.292C27.4732 25.7322 27.9998 24.8405 27.9998 24.2053C27.9998 23.3306 27.6578 22.5171 27.0578 21.9124C27.8053 20.2934 27.1046 18.3644 25.4896 17.6037ZM1.96607 15.342C1.40208 14.5865 1.579 13.4819 2.44333 12.9622C2.87038 12.7055 2.97128 12.13 2.65836 11.7433C1.87288 10.7725 2.39214 9.35088 3.61571 9.11261C4.10478 9.0174 4.39643 8.5111 4.23461 8.04068C3.82839 6.85988 4.80297 5.70154 6.03404 5.89618C6.52628 5.97394 6.97346 5.59791 6.98226 5.10048C7.00447 3.85197 8.3162 3.09684 9.40671 3.70081C9.84257 3.94225 10.3914 3.74188 10.5699 3.27742C11.0175 2.11214 12.5085 1.85058 13.3269 2.79125C13.6539 3.16717 14.2381 3.16663 14.5645 2.79125C15.2975 1.94885 16.9338 1.98314 17.4309 3.27737C17.6096 3.74254 18.1588 3.94187 18.5941 3.70081C19.6864 3.0957 20.9964 3.85426 21.0185 5.10048C21.0274 5.59879 21.4753 5.97378 21.9667 5.89618C23.2001 5.70111 24.1716 6.86206 23.7662 8.04068C23.6041 8.51187 23.8967 9.01762 24.3851 9.11266C25.6107 9.35132 26.1266 10.7741 25.3424 11.7433C25.029 12.1307 25.1311 12.7059 25.5575 12.9623C26.0596 13.2642 26.3594 13.7875 26.3594 14.362C26.3594 15.0794 25.8953 15.7381 25.1685 15.9023C25.0536 15.6691 24.9098 15.4472 24.7374 15.2417C24.1752 14.5718 23.3903 14.1686 22.5421 14.091C22.0739 12.3704 20.2974 11.3428 18.5709 11.7982C17.5161 10.3039 15.4751 10.0061 13.9569 11.0098C12.4953 9.98575 10.4647 10.3321 9.42968 11.7982C7.70485 11.3432 5.92707 12.3687 5.45851 14.091C4.29165 14.1977 3.32007 14.9117 2.83215 15.9023C2.49085 15.8252 2.18028 15.6289 1.96607 15.342ZM25.7487 25.2123C25.372 25.6433 24.7726 25.8204 24.2215 25.6635C20.8763 24.7107 17.4042 24.2426 13.8933 24.2536C10.3844 24.2636 6.91199 24.7508 3.57273 25.7231C2.98069 25.8954 2.33527 25.6795 1.96645 25.1859C1.40082 24.4287 1.58064 23.3245 2.44338 22.8056C2.87044 22.5489 2.97133 21.9735 2.65841 21.5867C2.28982 21.1311 2.18706 20.5369 2.38361 19.997C2.58005 19.4572 3.04073 19.068 3.61577 18.9561C4.10484 18.8609 4.39648 18.3546 4.23466 17.8841C3.86257 16.8025 4.65264 15.7184 5.76596 15.7184C6.03502 15.7184 6.34696 15.8451 6.68936 15.5577C6.87119 15.4051 6.978 15.1813 6.98221 14.9439C7.00441 13.6955 8.31614 12.9402 9.40666 13.5442C9.84257 13.7856 10.3914 13.5853 10.5698 13.1209C11.0175 11.9556 12.5084 11.694 13.3268 12.6347C13.6539 13.0106 14.238 13.0101 14.5645 12.6347C15.2973 11.7924 16.9335 11.8262 17.4309 13.1208C17.6096 13.586 18.1588 13.7853 18.594 13.5442C19.6863 12.9392 20.9963 13.6976 21.0185 14.9439C21.0273 15.4422 21.4753 15.8173 21.9667 15.7396C23.2001 15.5447 24.1716 16.7054 23.7661 17.8841C23.604 18.3553 23.8967 18.861 24.385 18.9561C25.6107 19.1948 26.1265 20.6176 25.3424 21.5867C25.029 21.9741 25.1311 22.5493 25.5574 22.8056C26.0524 23.1033 26.3507 23.616 26.3591 24.1808C26.3296 24.3202 26.1265 24.7801 25.7487 25.2123Z" fill="#FF6F14"/>
<path d="M21.273 17.9686C19.5657 15.6989 16.9174 14.362 14.0005 14.362C11.0795 14.362 8.43297 15.7023 6.72804 17.9686C6.4557 18.3306 6.52843 18.8448 6.89046 19.1172C7.25244 19.3895 7.76671 19.3169 8.03906 18.9548C9.40941 17.133 11.5603 15.9807 14.0005 15.9807C16.4409 15.9807 18.5917 17.1332 19.962 18.9548C20.2345 19.3172 20.7489 19.3894 21.1106 19.1172C21.4726 18.8449 21.5453 18.3307 21.273 17.9686Z" fill="#FF6F14"/>
<path d="M21.273 8.12504C19.5657 5.85529 16.9174 4.51846 14.0005 4.51846C11.0795 4.51846 8.43297 5.85879 6.72804 8.12504C6.4557 8.48707 6.52843 9.00129 6.89046 9.27363C7.25244 9.54592 7.76671 9.4733 8.03906 9.11121C9.40936 7.28941 11.5603 6.1371 14.0005 6.1371C16.4454 6.1371 18.5945 7.29324 19.962 9.11121C20.2344 9.47341 20.7487 9.54592 21.1106 9.27363C21.4726 9.00134 21.5453 8.48707 21.273 8.12504Z" fill="#FF6F14"/>
</g>
<defs>
<clipPath id="clip0_412_39">
<rect width="28" height="28" fill="white"/>
</clipPath>
</defs>
</svg>
