<svg width="28" height="28" viewBox="0 0 28 28" fill="none" xmlns="http://www.w3.org/2000/svg">
<g clip-path="url(#clip0_412_92)">
<path d="M26.3594 10.6914C26.3594 8.24277 24.9533 5.9961 22.7453 4.86325C21.9973 2.47964 19.8048 0.847656 17.2812 0.847656C14.7575 0.847656 12.5648 2.4798 11.8171 4.86369C11.7229 4.9122 11.6306 4.96366 11.5391 5.01648V4.12891H10.7188C8.59655 4.12891 6.73083 5.2739 5.72507 7.04009L3.89944 5.23376L3.32248 5.81071C2.01693 7.11632 1.44583 8.9279 1.69969 10.6914H0V14.793C0 19.2393 2.7708 23.0795 6.61719 24.6821V27.1523H21.3828V24.6821C25.2307 23.0789 28 19.2375 28 14.793V10.6914H26.3594ZM11.5391 7.03281C11.9263 6.68615 12.3617 6.40358 12.839 6.19292L13.2106 6.02886L13.3054 5.63385C13.7497 3.7818 15.3847 2.48828 17.2812 2.48828C19.1778 2.48828 20.8127 3.7818 21.2571 5.63391L21.3519 6.02891L21.7235 6.19298C23.543 6.99617 24.7188 8.76192 24.7188 10.6914H19.2617L21.1425 8.81054L19.9824 7.65045L18.1016 9.53132V5.76953H16.4609V9.53132L14.58 7.65045L13.4199 8.81054L15.3008 10.6914H11.5391V7.03281ZM9.89844 5.85391V10.6914H9.41538L6.9498 8.25191C7.48087 7.02259 8.5972 6.12402 9.89844 5.85391ZM3.96463 7.60621L7.08274 10.6914H3.36432C3.14945 9.62533 3.36913 8.50948 3.96463 7.60621ZM20.2887 23.3459L19.7422 23.5395V25.5117H8.25781V23.5395L7.71127 23.346C4.34159 22.1529 1.99845 19.1014 1.67852 15.6078H26.3215C26.0016 19.1014 23.6584 22.1529 20.2887 23.3459ZM26.3594 13.9727H1.64062V12.332H26.3594V13.9727Z" fill="#FF6F14"/>
</g>
<defs>
<clipPath id="clip0_412_92">
<rect width="28" height="28" fill="white"/>
</clipPath>
</defs>
</svg>
