<svg width="28" height="28" viewBox="0 0 28 28" fill="none" xmlns="http://www.w3.org/2000/svg">
<g clip-path="url(#clip0_413_11807)">
<path d="M22.5067 9.23869C22.5067 8.24993 23.3112 7.37806 24.3 7.37806C25.2887 7.37806 26.0932 8.18252 26.0932 9.17129C26.0932 10.1601 25.2887 10.9645 24.3 10.9645C23.7734 10.9645 23.3465 11.3913 23.3465 11.9179C23.3465 12.4444 23.7734 12.8713 24.3 12.8713C26.3402 12.8713 28 11.2116 28 9.17119C28 7.13096 26.3402 5.47123 24.3 5.47123C22.4429 5.47123 20.9014 6.84653 20.6396 8.63203C19.4208 9.06494 18.3032 9.27669 17.2386 9.27669C17.2384 9.27669 17.2381 9.27669 17.2378 9.27669C14.9803 9.27631 13.2976 8.3162 11.5162 7.3C10.452 6.69277 9.35173 6.06498 8.12161 5.65498C7.2588 5.36734 6.38476 5.2215 5.52383 5.2215C2.35295 5.2215 0.3625 7.17556 0.279254 7.25852C0.0526144 7.48516 -0.0448671 7.81051 0.0194292 8.12454C0.0838198 8.43848 0.301786 8.69906 0.599322 8.81794C3.46494 9.96415 5.04406 11.8904 6.57105 13.7531C8.08814 15.6035 9.64728 17.5026 12.3339 18.21C11.4365 19.0285 10.5677 20.2318 10.5677 21.8249C10.5677 22.3514 10.9946 22.7782 11.5211 22.7782H17.8137C17.8144 22.7782 17.8151 22.7782 17.8156 22.7782C18.3422 22.7782 18.769 22.3514 18.769 21.8249C18.769 21.8017 18.7682 21.7787 18.7665 21.7559C18.7407 20.1162 17.7941 18.8956 16.8631 18.0878C20.1667 16.8167 22.5067 12.7575 22.5067 9.23869ZM12.6768 20.8717C13.1046 19.8778 14.1083 19.1795 14.6662 18.8527C15.2224 19.1807 16.2265 19.8814 16.6561 20.8717H12.6768ZM18.7917 14.2604C17.6132 15.7644 16.1554 16.5928 14.6867 16.5928C11.3647 16.5928 9.90013 14.8062 8.04581 12.5443C6.7103 10.9153 5.2262 9.1051 2.8446 7.77817C3.50812 7.44066 4.42024 7.12851 5.52393 7.12851C6.17943 7.12851 6.85049 7.24136 7.51862 7.46423C8.57027 7.81465 9.54226 8.36928 10.5713 8.95624C12.4902 10.0511 14.4745 11.1833 17.2377 11.1835C17.2381 11.1835 17.2384 11.1835 17.2388 11.1835C18.2732 11.1835 19.3344 11.0235 20.4529 10.6967C20.1961 11.9455 19.6143 13.2103 18.7917 14.2604Z" fill="#FF6F14"/>
</g>
<defs>
<clipPath id="clip0_413_11807">
<rect width="28" height="28" fill="white"/>
</clipPath>
</defs>
</svg>
