<svg width="28" height="28" viewBox="0 0 28 28" fill="none" xmlns="http://www.w3.org/2000/svg">
<g clip-path="url(#clip0_409_7)">
<path d="M27.8443 10.5958C27.4313 9.32503 26.3065 8.50384 24.9786 8.50384H19.3839C19.0129 8.50384 18.7038 8.29029 18.5971 7.96172L16.8676 2.60437C16.4563 1.33874 15.3308 0.520996 14.0001 0.520996C12.6694 0.520996 11.5438 1.33874 11.132 2.60634L9.40372 7.95976C9.29632 8.29029 8.98728 8.50384 8.61628 8.50384H3.02147C1.69355 8.50384 0.56863 9.32497 0.155739 10.5958C-0.258792 11.8716 0.170505 13.2024 1.24927 13.9862L5.77559 17.2747C6.06664 17.4862 6.18755 17.8582 6.07632 18.2004L4.34743 23.5213C3.93618 24.7869 4.36613 26.1101 5.44271 26.8922C5.981 27.2834 6.59793 27.4789 7.21486 27.4789C7.83184 27.4789 8.44882 27.2834 8.98706 26.8922L13.5134 23.6037C13.8044 23.3922 14.1956 23.3921 14.4867 23.6037L19.0129 26.8922C20.0895 27.6744 21.4807 27.6745 22.5573 26.8922C23.6338 26.1102 24.0638 24.7869 23.6525 23.5213L22.469 19.8787C22.2824 19.3043 21.6654 18.99 21.0911 19.1765C20.5167 19.3632 20.2023 19.9801 20.389 20.5545L21.5725 24.1971C21.7449 24.728 21.3859 25.0399 21.2717 25.1229C21.1575 25.2058 20.7499 25.451 20.2984 25.1228L15.7721 21.8344C14.7122 21.0642 13.2878 21.0641 12.2278 21.8343L7.70152 25.1228C7.24991 25.451 6.84233 25.2058 6.72819 25.1229C6.614 25.0399 6.25498 24.728 6.42741 24.1971L8.1563 18.8762C8.56126 17.6301 8.12108 16.2754 7.06107 15.5053L2.53475 12.2167C2.07975 11.8862 2.19082 11.4098 2.23572 11.2717C2.28002 11.1354 2.46749 10.691 3.02142 10.691H8.61617C9.93184 10.691 11.0842 9.86501 11.4843 8.63367L13.2125 3.28031C13.385 2.7494 13.8589 2.70817 14 2.70817C14.1411 2.70817 14.6149 2.7494 14.7868 3.27834L16.5163 8.63564C16.9158 9.86501 18.0681 10.691 19.3838 10.691H24.9785C25.5325 10.691 25.7199 11.1354 25.7642 11.2717C25.8091 11.4098 25.9202 11.8862 25.4652 12.2167L22.3789 14.4591C21.8903 14.8142 21.782 15.4979 22.137 15.9866C22.492 16.4752 23.1758 16.5834 23.6645 16.2286L26.7508 13.9862C27.8296 13.2024 28.2588 11.8716 27.8443 10.5958Z" fill="#FF6F14"/>
</g>
<defs>
<clipPath id="clip0_409_7">
<rect width="28" height="28" fill="white"/>
</clipPath>
</defs>
</svg>
