<svg width="16" height="16" viewBox="0 0 16 16" fill="none" xmlns="http://www.w3.org/2000/svg">
<path d="M11.7067 14.0049C11.6001 14.0053 11.4949 13.9801 11.4 13.9315L8.00002 12.1515L4.60002 13.9315C4.48962 13.9896 4.36514 14.0155 4.24074 14.0063C4.11634 13.9972 3.99701 13.9533 3.89631 13.8797C3.79561 13.806 3.71759 13.7056 3.6711 13.5899C3.62462 13.4741 3.61154 13.3477 3.63336 13.2249L4.30002 9.47152L1.55336 6.80486C1.46766 6.71934 1.40687 6.6121 1.37751 6.49465C1.34815 6.3772 1.35132 6.25397 1.38669 6.13819C1.42533 6.01971 1.49641 5.91442 1.59186 5.83429C1.68731 5.75416 1.80331 5.70239 1.92669 5.68486L5.72669 5.13152L7.40003 1.71152C7.45462 1.59881 7.53985 1.50375 7.64597 1.43724C7.75208 1.37073 7.87479 1.33545 8.00002 1.33545C8.12526 1.33545 8.24797 1.37073 8.35408 1.43724C8.4602 1.50375 8.54543 1.59881 8.60002 1.71152L10.2934 5.12486L14.0934 5.67819C14.2167 5.69573 14.3327 5.7475 14.4282 5.82763C14.5236 5.90776 14.5947 6.01304 14.6334 6.13152C14.6687 6.24731 14.6719 6.37053 14.6425 6.48799C14.6132 6.60544 14.5524 6.71267 14.4667 6.79819L11.72 9.46486L12.3867 13.2182C12.4105 13.3432 12.398 13.4724 12.3508 13.5905C12.3035 13.7086 12.2235 13.8108 12.12 13.8849C11.9993 13.9695 11.8539 14.0117 11.7067 14.0049Z" fill="#FF6F14"/>
</svg>
