<svg width="28" height="28" viewBox="0 0 28 28" fill="none" xmlns="http://www.w3.org/2000/svg">
<path d="M27.7597 26.6L25.2419 24.0823C25.6058 23.8444 25.9267 23.5394 26.1872 23.1766C26.7408 22.4053 26.959 21.4575 26.8016 20.5077C26.5917 19.2411 25.6528 18.1545 24.4098 17.7395C24.0606 17.6229 23.7038 17.561 23.3493 17.5555C23.0352 17.5506 22.4529 17.4815 22.0834 17.0743C21.4678 16.396 20.6336 15.9956 19.7421 15.9265V7.98474C19.7421 7.53171 19.3749 7.16443 18.9218 7.16443H12.0747C12.0808 7.08727 12.0848 7.00966 12.0857 6.93152C12.0987 5.76897 11.4745 4.65149 10.4158 3.94214C9.98359 3.65257 9.5328 3.46477 9.07594 3.38389C8.74453 3.32526 8.44681 3.11291 8.23758 2.78593C7.47223 1.5903 6.06659 0.96703 4.65609 1.19732C4.07898 1.29176 3.5286 1.53955 3.06294 1.90317L1.40033 0.240672C1.16577 0.00600795 0.812875 -0.0640467 0.506406 0.0628282C0.199828 0.189812 0 0.488898 0 0.820687V27.18C0 27.6331 0.367281 28.0003 0.820312 28.0003H27.1797C27.5115 28.0003 27.8106 27.8005 27.9375 27.4939C28.0645 27.1874 27.9943 26.8346 27.7597 26.6ZM20.8686 18.1768C21.4508 18.8184 22.3227 19.1803 23.3239 19.1959C23.51 19.1988 23.7006 19.2324 23.8902 19.2956C24.5638 19.5205 25.0713 20.1016 25.1831 20.776C25.3342 21.6877 24.8441 22.5405 24.0337 22.874L19.7422 18.5825V17.5742C20.1719 17.6352 20.5642 17.8415 20.8686 18.1768ZM18.1016 8.80505V16.9418L16.4792 15.3195C16.8231 14.7641 17.0078 14.1231 17.0078 13.4535C17.0078 11.4934 15.4132 9.8988 13.4531 9.8988C12.7835 9.8988 12.1425 10.0835 11.5871 10.4274L10.786 9.6263C11.0715 9.39108 11.3178 9.11333 11.5172 8.80511H18.1016V8.80505ZM15.2568 14.097L12.8096 11.6498C13.0134 11.5773 13.2304 11.5394 13.4531 11.5394C14.5085 11.5394 15.3672 12.3981 15.3672 13.4535C15.3672 13.6763 15.3293 13.8932 15.2568 14.097ZM4.92089 2.8165C5.69636 2.68958 6.43743 3.01693 6.85573 3.67039C7.31495 4.38789 8.00187 4.8599 8.78987 4.99941C9.02431 5.04092 9.2575 5.14094 9.50261 5.30511C10.0996 5.7051 10.4519 6.30627 10.4451 6.91309C10.4381 7.53516 10.1182 8.10828 9.61532 8.45566L4.2379 3.07818C4.44768 2.94644 4.68032 2.85588 4.92089 2.8165ZM1.64062 26.3597V2.80108L25.1993 26.3597H1.64062Z" fill="#FF6F14"/>
<path d="M4.70312 9.89844C5.15617 9.89844 5.52344 9.53117 5.52344 9.07812C5.52344 8.62508 5.15617 8.25781 4.70312 8.25781C4.25008 8.25781 3.88281 8.62508 3.88281 9.07812C3.88281 9.53117 4.25008 9.89844 4.70312 9.89844Z" fill="#FF6F14"/>
<path d="M4.70312 17.0078C5.15617 17.0078 5.52344 16.6405 5.52344 16.1875C5.52344 15.7345 5.15617 15.3672 4.70312 15.3672C4.25008 15.3672 3.88281 15.7345 3.88281 16.1875C3.88281 16.6405 4.25008 17.0078 4.70312 17.0078Z" fill="#FF6F14"/>
<path d="M4.70312 24.1172C5.15617 24.1172 5.52344 23.7499 5.52344 23.2969C5.52344 22.8438 5.15617 22.4766 4.70312 22.4766C4.25008 22.4766 3.88281 22.8438 3.88281 23.2969C3.88281 23.7499 4.25008 24.1172 4.70312 24.1172Z" fill="#FF6F14"/>
<path d="M18.9219 24.1172C19.3749 24.1172 19.7422 23.7499 19.7422 23.2969C19.7422 22.8438 19.3749 22.4766 18.9219 22.4766C18.4688 22.4766 18.1016 22.8438 18.1016 23.2969C18.1016 23.7499 18.4688 24.1172 18.9219 24.1172Z" fill="#FF6F14"/>
<path d="M11.8125 24.1172C12.2655 24.1172 12.6328 23.7499 12.6328 23.2969C12.6328 22.8438 12.2655 22.4766 11.8125 22.4766C11.3595 22.4766 10.9922 22.8438 10.9922 23.2969C10.9922 23.7499 11.3595 24.1172 11.8125 24.1172Z" fill="#FF6F14"/>
<path d="M7.98438 20.8359C8.43742 20.8359 8.80469 20.4687 8.80469 20.0156C8.80469 19.5626 8.43742 19.1953 7.98438 19.1953C7.53133 19.1953 7.16406 19.5626 7.16406 20.0156C7.16406 20.4687 7.53133 20.8359 7.98438 20.8359Z" fill="#FF6F14"/>
<path d="M7.98438 13.7266C8.43742 13.7266 8.80469 13.3593 8.80469 12.9062C8.80469 12.4532 8.43742 12.0859 7.98438 12.0859C7.53133 12.0859 7.16406 12.4532 7.16406 12.9062C7.16406 13.3593 7.53133 13.7266 7.98438 13.7266Z" fill="#FF6F14"/>
<path d="M11.2656 17.5547C11.7187 17.5547 12.0859 17.1874 12.0859 16.7344C12.0859 16.2813 11.7187 15.9141 11.2656 15.9141C10.8126 15.9141 10.4453 16.2813 10.4453 16.7344C10.4453 17.1874 10.8126 17.5547 11.2656 17.5547Z" fill="#FF6F14"/>
<path d="M15.0938 20.8359C15.5468 20.8359 15.9141 20.4687 15.9141 20.0156C15.9141 19.5626 15.5468 19.1953 15.0938 19.1953C14.6407 19.1953 14.2734 19.5626 14.2734 20.0156C14.2734 20.4687 14.6407 20.8359 15.0938 20.8359Z" fill="#FF6F14"/>
</svg>
